<svg id="Layer_1" data-name="Layer 1" xmlns="http://www.w3.org/2000/svg" width="42.1" height="32.7" viewBox="0 0 42.1 32.7"><defs><style>.cls-1{fill:#474747;}.cls-2{fill:silver;}</style></defs><path class="cls-1" d="M3,32.6H39.2a2.9,2.9,0,0,0,2.9-2.9V1.5A1.4,1.4,0,0,0,40.7,0H35.5a1.4,1.4,0,0,0-1.4,1.5v21a2,2,0,0,1-2,2H10.1a2,2,0,0,1-2-2V1.5A1.5,1.5,0,0,0,6.6,0H1.5A1.5,1.5,0,0,0,0,1.5V29.7A2.9,2.9,0,0,0,3,32.6Z" transform="translate(0 0)"></path><rect class="cls-2" x="9.2" y="0.4" width="23.7" height="23.3" rx="2" transform="translate(42.1 24.1) rotate(-180)"></rect><path class="cls-1" d="M31.4,24H10.7a1.8,1.8,0,0,1-1.8-1.8V1.8A2.1,2.1,0,0,1,9.4.5,2.1,2.1,0,0,1,10.7,0H31.4a1.9,1.9,0,0,1,1.3.5,1.8,1.8,0,0,1,.6,1.3V22.2a1.6,1.6,0,0,1-.6,1.3A1.5,1.5,0,0,1,31.4,24ZM10.7.7a1.1,1.1,0,0,0-.8.3,1.3,1.3,0,0,0-.3.8V22.2a1.1,1.1,0,0,0,1.1,1.1H31.4a1,1,0,0,0,1.1-1.1V1.8a.9.9,0,0,0-.3-.7,1.2,1.2,0,0,0-.8-.4Z" transform="translate(0 0)"></path></svg>
