<svg width="46" height="46" viewBox="0 0 46 46" fill="none" xmlns="http://www.w3.org/2000/svg">
<g clip-path="url(#clip0_22_524)">
<path d="M12.0272 30.588H14.2844C14.9928 30.588 15.5036 30.1549 15.6683 29.4719L16.3274 26.7731C16.7557 26.6065 17.1841 26.4399 17.563 26.24L19.9026 27.706C20.4957 28.0725 21.1877 28.0059 21.6819 27.5061L23.2636 25.9068C23.7414 25.3904 23.8238 24.674 23.4448 24.0743L22.0115 21.7253C22.2092 21.3255 22.3904 20.9257 22.5057 20.5259L25.1913 19.8595C25.8832 19.6929 26.3116 19.1765 26.3116 18.4435V16.2112C26.3116 15.4948 25.8832 14.9784 25.1913 14.7951L22.5387 14.1454C22.3904 13.679 22.2092 13.2625 22.0444 12.9127L23.4448 10.5137C23.8238 9.88068 23.8073 9.23098 23.2966 8.71454L21.6819 7.13192C21.1877 6.64881 20.5122 6.53219 19.9355 6.89869L17.563 8.39802C17.2006 8.19811 16.7722 8.01486 16.3274 7.88158L15.6683 5.13282C15.5036 4.43314 14.9928 4 14.2844 4H12.0272C11.3023 4 10.808 4.43314 10.6268 5.13282L9.98424 7.84827C9.5394 7.9982 9.11103 8.16479 8.73209 8.3647L6.3596 6.89869C5.78295 6.53219 5.12393 6.64881 4.62966 7.13192L3.01504 8.71454C2.5043 9.23098 2.48782 9.88068 2.85029 10.5137L4.25072 12.9127C4.10244 13.2625 3.9212 13.679 3.75645 14.1454L1.10387 14.7951C0.411891 14.9784 0 15.4948 0 16.2112V18.4435C0 19.1765 0.411891 19.6929 1.10387 19.8595L3.80587 20.5259C3.9212 20.9257 4.10244 21.3255 4.30014 21.7253L2.85029 24.0743C2.48782 24.674 2.55373 25.3904 3.04799 25.9068L4.62966 27.5061C5.12393 28.0059 5.8159 28.0725 6.40903 27.706L8.74857 26.24C9.12751 26.4399 9.5394 26.6065 9.98424 26.7731L10.6268 29.4719C10.808 30.1549 11.3023 30.588 12.0272 30.588ZM13.1476 21.3422C10.9563 21.3422 9.14398 19.5097 9.14398 17.2774C9.14398 15.0783 10.9563 13.2458 13.1476 13.2458C15.3388 13.2458 17.1511 15.0783 17.1511 17.2774C17.1511 19.5097 15.3388 21.3422 13.1476 21.3422ZM33.7421 41H35.6203C36.2794 41 36.7407 40.6168 36.8725 40.0171L37.4162 37.6848C37.7951 37.5349 38.1411 37.4183 38.4871 37.2184L40.4971 38.5011C41.0079 38.8176 41.601 38.7677 42.0458 38.3345L43.3639 36.9685C43.8087 36.5187 43.8746 35.9023 43.5451 35.3859L42.3095 33.3534C42.4742 33.0203 42.6225 32.6704 42.7213 32.3206L45.0609 31.7708C45.654 31.6209 46 31.1711 46 30.5214V28.6389C46 27.9892 45.654 27.5227 45.0609 27.3895L42.7378 26.8231C42.6225 26.4232 42.4907 26.0734 42.3259 25.7735L43.5451 23.7078C43.8911 23.158 43.8582 22.5916 43.3968 22.1418L42.0458 20.8091C41.601 20.3926 41.0244 20.276 40.5136 20.6092L38.4871 21.8919C38.1576 21.7253 37.7951 21.5588 37.4162 21.4421L36.8725 19.0599C36.7407 18.4768 36.2794 18.077 35.6203 18.077H33.7421C33.0996 18.077 32.6547 18.4768 32.5064 19.0599L31.9463 21.4088C31.5838 21.5588 31.2049 21.692 30.8754 21.8753L28.8489 20.5925C28.3546 20.2927 27.7615 20.3593 27.3166 20.8091L25.9821 22.1418C25.5208 22.5916 25.5043 23.158 25.8338 23.7078L27.0365 25.7735C26.9047 26.0734 26.7564 26.4232 26.6246 26.8231L24.3345 27.3895C23.7249 27.5227 23.3625 27.9892 23.3625 28.6389V30.5214C23.3625 31.1544 23.7249 31.6209 24.3345 31.7708L26.6576 32.3206C26.7729 32.6704 26.9047 33.0203 27.0695 33.3534L25.8338 35.3859C25.4878 35.8856 25.5702 36.5187 25.9986 36.9685L27.3166 38.3345C27.7615 38.7677 28.3711 38.8176 28.8818 38.5011L30.8918 37.2184C31.2213 37.4183 31.5838 37.5349 31.9463 37.6848L32.5064 40.0171C32.6547 40.6168 33.0996 41 33.7421 41ZM34.6977 32.7537C32.9348 32.7537 31.5179 31.3044 31.5179 29.5218C31.5179 27.7726 32.9513 26.3233 34.6977 26.3233C36.4441 26.3233 37.861 27.7726 37.861 29.5218C37.861 31.3044 36.4441 32.7537 34.6977 32.7537Z" fill="#FF9763"/>
</g>
<defs>
<clipPath id="clip0_22_524">
<rect width="46" height="46" fill="white"/>
</clipPath>
</defs>
</svg>
