<svg width="46" height="46" viewBox="0 0 46 46" fill="none" xmlns="http://www.w3.org/2000/svg">
<path d="M11.7926 36.0742C12.3705 36.0742 12.8108 35.8067 13.4988 35.1915L17.3928 31.7144C16.6223 31.1126 15.9618 30.0962 15.9618 28.0233V18.6083C15.9618 14.3956 18.6175 11.868 22.9518 11.868H32.859L32.8452 11.4534C32.5975 8.79206 30.7812 7 27.5064 7H8.38012C5.07774 7 3 8.8723 3 12.1355V25.5358C3 28.7588 5.03646 30.7381 8.2838 30.7381H10.4854V34.6165C10.4854 35.4991 10.967 36.0742 11.7926 36.0742ZM34.978 38C35.8173 38 36.2989 37.4249 36.2989 36.5423V32.6639H37.7162C40.9635 32.6639 43 30.6846 43 27.4616V18.956C43 15.6928 40.9223 13.8205 37.6199 13.8205H23.3646C19.9384 13.8205 17.9845 15.6795 17.9845 19.0095V27.4616C17.9845 30.7114 19.9522 32.6639 23.3646 32.6639H28.2081L33.2855 37.1173C33.9735 37.7325 34.4001 38 34.978 38Z" fill="#FF9763"/>
</svg>
