<svg width="46" height="46" viewBox="0 0 46 46" fill="none" xmlns="http://www.w3.org/2000/svg">
<path d="M2 32.0834C2 35.8396 3.98084 37.8055 7.76722 37.8055H26.0506C25.402 36.7523 24.9462 35.5588 24.7358 34.3125H7.74969C6.29474 34.3125 5.48838 33.5578 5.48838 32.0132V15.8649C5.48838 14.3203 6.29474 13.5656 7.74969 13.5656H31.923C33.3779 13.5656 34.1843 14.3203 34.1843 15.8649V20.569C34.7978 20.4637 35.3763 20.411 35.9547 20.411C36.5332 20.411 37.1117 20.4637 37.6902 20.5514V10.7221C37.6902 6.96587 35.7093 5 31.9054 5H7.76722C3.98084 5 2 6.94832 2 10.7221V32.0834ZM16.4619 19.6212H17.4961C18.1272 19.6212 18.3375 19.4281 18.3375 18.8137V17.7782C18.3375 17.1463 18.1272 16.9532 17.4961 16.9532H16.4619C15.8308 16.9532 15.6205 17.1463 15.6205 17.7782V18.8137C15.6205 19.4281 15.8308 19.6212 16.4619 19.6212ZM22.194 19.6212H23.2283C23.8418 19.6212 24.0522 19.4281 24.0522 18.8137V17.7782C24.0522 17.1463 23.8418 16.9532 23.2283 16.9532H22.194C21.563 16.9532 21.3526 17.1463 21.3526 17.7782V18.8137C21.3526 19.4281 21.563 19.6212 22.194 19.6212ZM27.9087 19.6212H28.9429C29.574 19.6212 29.7843 19.4281 29.7843 18.8137V17.7782C29.7843 17.1463 29.574 16.9532 28.9429 16.9532H27.9087C27.2951 16.9532 27.0848 17.1463 27.0848 17.7782V18.8137C27.0848 19.4281 27.2951 19.6212 27.9087 19.6212ZM10.7472 25.273H11.764C12.395 25.273 12.6054 25.08 12.6054 24.4481V23.4125C12.6054 22.7981 12.395 22.6051 11.764 22.6051H10.7472C10.1162 22.6051 9.90583 22.7981 9.90583 23.4125V24.4481C9.90583 25.08 10.1162 25.273 10.7472 25.273ZM16.4619 25.273H17.4961C18.1272 25.273 18.3375 25.08 18.3375 24.4481V23.4125C18.3375 22.7981 18.1272 22.6051 17.4961 22.6051H16.4619C15.8308 22.6051 15.6205 22.7981 15.6205 23.4125V24.4481C15.6205 25.08 15.8308 25.273 16.4619 25.273ZM22.194 25.273H23.2283C23.8418 25.273 24.0522 25.08 24.0522 24.4481V23.4125C24.0522 22.7981 23.8418 22.6051 23.2283 22.6051H22.194C21.563 22.6051 21.3526 22.7981 21.3526 23.4125V24.4481C21.3526 25.08 21.563 25.273 22.194 25.273ZM35.9547 41C40.863 41 45 36.8927 45 31.943C45 26.9932 40.9156 22.9035 35.9547 22.9035C31.0114 22.9035 26.927 26.9932 26.927 31.943C26.927 36.9103 31.0114 41 35.9547 41ZM30.2226 31.943C30.2226 31.2233 30.7134 30.7494 31.4321 30.7494H34.7452V27.432C34.7452 26.7123 35.236 26.2209 35.9547 26.2209C36.691 26.2209 37.1643 26.7123 37.1643 27.432V30.7494H40.4774C41.1961 30.7494 41.6869 31.2233 41.6869 31.943C41.6869 32.6802 41.1961 33.1541 40.4774 33.1541H37.1643V36.489C37.1643 37.2087 36.691 37.6826 35.9547 37.6826C35.236 37.6826 34.7452 37.2087 34.7452 36.489V33.1541H31.4321C30.7134 33.1541 30.2401 32.6802 30.2226 31.943ZM10.7472 30.9074H11.764C12.395 30.9074 12.6054 30.7143 12.6054 30.1V29.0644C12.6054 28.4325 12.395 28.2394 11.764 28.2394H10.7472C10.1162 28.2394 9.90583 28.4325 9.90583 29.0644V30.1C9.90583 30.7143 10.1162 30.9074 10.7472 30.9074ZM16.4619 30.9074H17.4961C18.1272 30.9074 18.3375 30.7143 18.3375 30.1V29.0644C18.3375 28.4325 18.1272 28.2394 17.4961 28.2394H16.4619C15.8308 28.2394 15.6205 28.4325 15.6205 29.0644V30.1C15.6205 30.7143 15.8308 30.9074 16.4619 30.9074ZM22.194 30.9074H23.2283C23.8418 30.9074 24.0522 30.7143 24.0522 30.1V29.0644C24.0522 28.4325 23.8418 28.2394 23.2283 28.2394H22.194C21.563 28.2394 21.3526 28.4325 21.3526 29.0644V30.1C21.3526 30.7143 21.563 30.9074 22.194 30.9074Z" fill="#FF9763"/>
</svg>
