<svg width="46" height="46" viewBox="0 0 46 46" fill="none" xmlns="http://www.w3.org/2000/svg">
<g clip-path="url(#clip0_22_481)">
<path d="M37.2651 9H9.36987C5.8442 9 3.99976 10.8281 3.99976 14.3211V15.7902H42.6352V14.3211C42.6352 10.8281 40.8071 9 37.2651 9ZM10.8226 32.0638C9.85955 32.0638 9.20665 31.4272 9.20665 30.4968V27.4771C9.20665 26.5631 9.85955 25.9102 10.8226 25.9102H14.8216C15.7683 25.9102 16.4212 26.5631 16.4212 27.4771V30.4968C16.4212 31.4272 15.7683 32.0638 14.8216 32.0638H10.8226ZM9.36987 37.287H37.2651C40.8071 37.287 42.6352 35.4425 42.6352 31.9495V19.626H3.99976V31.9495C3.99976 35.4588 5.8442 37.287 9.36987 37.287Z" fill="#FF9763"/>
</g>
<defs>
<clipPath id="clip0_22_481">
<rect width="46" height="46" fill="white"/>
</clipPath>
</defs>
</svg>
