<svg width="46" height="46" viewBox="0 0 46 46" fill="none" xmlns="http://www.w3.org/2000/svg">
<path d="M32.9173 38H40.9736C42.7174 38 43.88 36.8754 43.88 35.2086V18.7413C43.88 17.0745 42.7174 15.96 40.9736 15.96H32.9173C31.1429 15.96 29.96 17.0745 29.96 18.7413V35.2086C29.96 36.8754 31.1429 38 32.9173 38ZM33.264 35.9315C32.4584 35.9315 31.9995 35.4998 31.9995 34.7366V19.2132C31.9995 18.4501 32.4584 18.0184 33.264 18.0184H33.6822V18.5204C33.6822 18.9622 33.9779 19.2534 34.4164 19.2534H39.4337C39.8722 19.2534 40.168 18.9622 40.168 18.5204V18.0184H40.5759C41.3815 18.0184 41.8404 18.4602 41.8404 19.2233V34.7366C41.8404 35.4998 41.3815 35.9315 40.5759 35.9315H33.264ZM34.2022 35.1383H39.6479C39.9436 35.1383 40.168 34.9375 40.168 34.6262C40.168 34.325 39.9436 34.1241 39.6479 34.1241H34.2022C33.9065 34.1241 33.6822 34.325 33.6822 34.6262C33.6822 34.9375 33.9065 35.1383 34.2022 35.1383Z" fill="#FF9763"/>
<path fill-rule="evenodd" clip-rule="evenodd" d="M6.12315 32.8356C3.49292 32.8356 2.12 31.5303 2.12 28.8914V12.93C2.12 10.3053 3.49292 9 6.12315 9H32.9024C35.5326 9 36.92 10.3053 36.92 12.93V17.12H34.1019V13.1145C34.1019 12.1355 33.6683 11.7666 32.7145 11.7666H6.31102C5.3572 11.7666 4.9381 12.1355 4.9381 13.1145V28.7211C4.9381 29.6859 5.3572 30.069 6.31102 30.069H31.1199V32.8356H24.0868L24.4625 35.4036H26.11C26.8471 35.4036 27.4396 35.9995 27.4396 36.7089C27.4396 37.4041 26.8471 38 26.11 38H13.0311C12.3085 38 11.716 37.4041 11.716 36.7089C11.716 35.9995 12.3085 35.4036 13.0311 35.4036H14.563L14.9532 32.8356H6.12315Z" fill="#FF9763"/>
</svg>
