<svg id="Layer_1" data-name="Layer 1" xmlns="http://www.w3.org/2000/svg" width="91.7" height="32.7" viewBox="0 0 91.7 32.7"><defs><style>.cls-1{fill:silver;}.cls-2{fill:#474747;}</style></defs><rect class="cls-1" x="9.2" y="0.4" width="23.7" height="23.3" rx="2" transform="translate(42.1 24.1) rotate(-180)"></rect><path class="cls-2" d="M31.4,24H10.7a1.8,1.8,0,0,1-1.8-1.8V1.8A2.1,2.1,0,0,1,9.4.5,2.1,2.1,0,0,1,10.7,0H31.4a1.9,1.9,0,0,1,1.3.5,1.8,1.8,0,0,1,.6,1.3V22.2a1.6,1.6,0,0,1-.6,1.3A1.5,1.5,0,0,1,31.4,24ZM10.7.7a1.1,1.1,0,0,0-.8.3,1.3,1.3,0,0,0-.3.8V22.2a1.1,1.1,0,0,0,1.1,1.1H31.4a1,1,0,0,0,1.1-1.1V1.8a.9.9,0,0,0-.3-.7,1.2,1.2,0,0,0-.8-.4Z"></path><rect class="cls-1" x="34" y="0.4" width="23.7" height="23.3" rx="2" transform="translate(91.7 24.1) rotate(-180)"></rect><path class="cls-2" d="M56.2,24.1H35.5a1.9,1.9,0,0,1-1.9-1.8V1.8A2.1,2.1,0,0,1,34.2.5,1.9,1.9,0,0,1,35.5,0H56.2a1.6,1.6,0,0,1,1.3.6,1.6,1.6,0,0,1,.6,1.2V22.2a1.5,1.5,0,0,1-.5,1.3A1.6,1.6,0,0,1,56.2,24.1ZM35.5.7a1.2,1.2,0,0,0-.8.4.9.9,0,0,0-.3.7V22.2a1.1,1.1,0,0,0,1.1,1.1H56.2a1,1,0,0,0,1.1-1.1V1.8a.9.9,0,0,0-.3-.7,1.1,1.1,0,0,0-.8-.3Z"></path><rect class="cls-1" x="58.8" y="0.4" width="23.7" height="23.3" rx="2" transform="translate(141.3 24.1) rotate(-180)"></rect><path class="cls-2" d="M81,24.1H60.3a1.9,1.9,0,0,1-1.9-1.8V1.8A1.8,1.8,0,0,1,59,.5,1.9,1.9,0,0,1,60.3,0H81a1.8,1.8,0,0,1,1.8,1.8V22.2A1.9,1.9,0,0,1,81,24.1ZM60.3.7a1.2,1.2,0,0,0-.8.4.9.9,0,0,0-.3.7V22.2a1.1,1.1,0,0,0,1.1,1.1H81a1.1,1.1,0,0,0,1.1-1.1V1.8A1,1,0,0,0,81,.8Z"></path><path class="cls-2" d="M3,32.7H88.7a2.9,2.9,0,0,0,2.9-2.9V1.6A1.5,1.5,0,0,0,90.2.1H85.1a1.4,1.4,0,0,0-1.5,1.5v21a1.9,1.9,0,0,1-2,2H10.1a2,2,0,0,1-2-2V1.5A1.5,1.5,0,0,0,6.6.1H1.5A1.5,1.5,0,0,0,0,1.5V29.7A2.9,2.9,0,0,0,3,32.7Z"></path></svg>
