<svg width="24" height="24" viewBox="0 0 24 24" fill="none" xmlns="http://www.w3.org/2000/svg">
<path d="M11.9957 20.9913C16.9285 20.9913 21 16.9198 21 11.9957C21 7.07153 16.9198 3 11.9869 3C7.06283 3 3 7.07153 3 11.9957C3 16.9198 7.07153 20.9913 11.9957 20.9913ZM11.9957 19.1991C8.00242 19.1991 4.80957 15.9889 4.80957 11.9957C4.80957 8.00242 8.00242 4.80087 11.9869 4.80087C15.9802 4.80087 19.1904 8.00242 19.1991 11.9957C19.2078 15.9889 15.9889 19.1991 11.9957 19.1991ZM7.61092 13.0918H11.9869C12.3871 13.0918 12.6916 12.7873 12.6916 12.3958V6.70614C12.6916 6.31465 12.3871 6.01015 11.9869 6.01015C11.6042 6.01015 11.2997 6.31465 11.2997 6.70614V11.6999H7.61092C7.21943 11.6999 6.91493 12.0044 6.91493 12.3958C6.91493 12.7873 7.21943 13.0918 7.61092 13.0918Z" fill="#ACACAC"/>
</svg>
