<svg id="Layer_1" data-name="Layer 1" xmlns="http://www.w3.org/2000/svg" width="46.6" height="46.6" viewBox="0 0 46.6 46.6"><defs><style>.cls-1{fill:#474747;}.cls-2{fill:silver;}</style></defs><path class="cls-1" d="M32.9,46.4c2.5-1,2.4-7.2,1.4-12.1,4.9,1,11.1,1,12.1-1.5S43,26,38.9,23.3c4.1-2.8,8.5-7.1,7.5-9.6s-7.2-2.4-12.1-1.5c1-4.8,1-11-1.5-12S26,3.6,23.3,7.7C20.5,3.6,16.2-.9,13.7.2s-2.4,7.2-1.5,12.1c-4.8-1-11-1-12,1.5s3.4,6.8,7.5,9.5C3.6,26.1-.9,30.4.2,32.9s7.2,2.4,12.1,1.4c-1,4.9-1,11.1,1.5,12.1s6.8-3.4,9.5-7.5C26.1,43,30.4,47.4,32.9,46.4Z" transform="translate(0 0)"></path><path class="cls-2" d="M46.6,23.3c0-2.5-5.4-4.7-9.9-5.6,2.6-3.8,4.8-9.1,3.1-10.9s-7.1.5-11,3.1C28,5.4,25.8,0,23.3,0s-4.7,5.4-5.6,9.9C13.9,7.3,8.6,5,6.8,6.8s.5,7.1,3.1,10.9C5.4,18.6,0,20.8,0,23.3S5.4,28,9.9,28.8C7.3,32.7,5,38,6.8,39.8s7.1-.5,10.9-3.1c.9,4.5,3.1,9.9,5.6,9.9s4.7-5.4,5.5-9.9c3.9,2.6,9.2,4.8,11,3.1s-.5-7.1-3.1-11C41.2,28,46.6,25.8,46.6,23.3Z" transform="translate(0 0)"></path><path class="cls-1" d="M23,37.1c1.5,0,2.8-3.1,3.4-5.8,2.2,1.6,5.3,3,6.4,2s-.2-4.2-1.6-6.5c2.7-.5,5.9-1.7,5.9-3.2s-3.1-2.8-5.8-3.4c1.6-2.3,3-5.4,2-6.4s-4.2.1-6.5,1.6c-.5-2.7-1.7-5.9-3.2-5.9s-2.8,3.1-3.4,5.8c-2.3-1.6-5.4-3-6.4-2s.1,4.2,1.6,6.5c-2.7.5-5.9,1.7-5.9,3.2s3.1,2.8,5.8,3.4c-1.6,2.2-3,5.3-2,6.4s4.2-.2,6.5-1.6C20.3,33.9,21.5,37.1,23,37.1Z" transform="translate(0 0)"></path></svg>
