<svg id="Layer_1" data-name="Layer 1" xmlns="http://www.w3.org/2000/svg" width="86.6" height="47.8" viewBox="0 0 86.6 47.8"><defs><style>.cls-1{fill:#474747;}</style></defs><path class="cls-1" d="M69.6,0H0V47.8H86.6V0ZM68.2,1.4V23.2H52.5V1.4Zm-17.1,0V23.2H35.5V1.4Zm-17,0V23.2H18.5V1.4ZM17,1.4V23.2H1.4V1.4ZM1.4,46.4V24.6H17V46.4Zm17.1,0V24.6H34.1V46.4Zm17,0V24.6H51.1V46.4Zm17,0V24.6H68.2V46.4Zm32.7,0H69.6V24.6h7.8v4.1a.4.4,0,0,0,.7.4l6.8-4.8c.3-.2.3-.6,0-.7l-6.8-4.9a.4.4,0,0,0-.7.4v4.1H69.6V1.4H85.2Z"></path></svg>
